<?xml version="1.0" encoding="UTF-8" standalone="no"?>
<svg
   xmlns:dc="http://purl.org/dc/elements/1.1/"
   xmlns:cc="http://creativecommons.org/ns#"
   xmlns:rdf="http://www.w3.org/1999/02/22-rdf-syntax-ns#"
   xmlns:svg="http://www.w3.org/2000/svg"
   xmlns="http://www.w3.org/2000/svg"
   xmlns:sodipodi="http://sodipodi.sourceforge.net/DTD/sodipodi-0.dtd"
   xmlns:inkscape="http://www.inkscape.org/namespaces/inkscape"
   inkscape:version="1.0 (4035a4fb49, 2020-05-01)"
   sodipodi:docname="verilog2vhdl.svg"
   id="svg11"
   version="1.1"
   width="400"
   viewBox="0 0 43.75 43.75"
   height="400">
  <metadata
     id="metadata17">
    <rdf:RDF>
      <cc:Work
         rdf:about="">
        <dc:format>image/svg+xml</dc:format>
        <dc:type
           rdf:resource="http://purl.org/dc/dcmitype/StillImage" />
        <dc:title />
      </cc:Work>
    </rdf:RDF>
  </metadata>
  <defs
     id="defs15" />
  <sodipodi:namedview
     inkscape:document-rotation="0"
     inkscape:current-layer="svg11"
     inkscape:window-maximized="1"
     inkscape:window-y="27"
     inkscape:window-x="67"
     inkscape:cy="184.61449"
     inkscape:cx="-172.68097"
     inkscape:zoom="0.5"
     fit-margin-bottom="0"
     fit-margin-right="0"
     fit-margin-left="0"
     fit-margin-top="0"
     showgrid="false"
     id="namedview13"
     inkscape:window-height="845"
     inkscape:window-width="1533"
     inkscape:pageshadow="2"
     inkscape:pageopacity="0"
     guidetolerance="10"
     gridtolerance="10"
     objecttolerance="10"
     borderopacity="1"
     bordercolor="#666666"
     pagecolor="#ffffff" />
  <g
     style="fill:#ff2a2a;fill-rule:evenodd;fill-opacity:1"
     transform="scale(0.78125)"
     id="Page-1">
    <g
       style="fill:#ff2a2a;fill-rule:nonzero;fill-opacity:1"
       id="059---Language-Book">
      <path
         style="fill:#ff2a2a;fill-opacity:1"
         inkscape:connector-curvature="0"
         d="M 16,7.162 15.387,9 h 1.226 z"
         id="Shape" />
      <path
         style="fill:#ff2a2a;fill-opacity:1"
         inkscape:connector-curvature="0"
         d="M 39,9.509 C 39.896314,8.509152 40.532705,7.3040268 40.853,6 h -3.7 C 37.471393,7.3035084 38.105716,8.5086179 39,9.509 Z"
         id="path3" />
      <path
         style="fill:#ff2a2a;fill-opacity:1"
         inkscape:connector-curvature="0"
         d="M 46,0 H 10 C 8.3431458,0 7,1.3431457 7,3 v 21 c 0,1.656854 1.3431458,3 3,3 h 15 c 0.552285,0 1,0.447715 1,1 0,0.552285 -0.447715,1 -1,1 h -3.752 l 6.009,6.668 c 0.192618,0.205224 0.461542,0.321639 0.743,0.321639 0.281458,0 0.550382,-0.116415 0.743,-0.321639 L 34.752,29 H 31 c -0.552285,0 -1,-0.447715 -1,-1 0,-0.552285 0.447715,-1 1,-1 h 15 c 1.656854,0 3,-1.343146 3,-3 V 3 C 49,1.3431457 47.656854,0 46,0 Z M 24,7 h 3.586 L 27.293,6.707 C 27.033043,6.4559255 26.928787,6.0841221 27.020303,5.7344927 27.111818,5.3848632 27.384863,5.1118183 27.734493,5.0203028 28.084122,4.9287874 28.455925,5.0330434 28.707,5.293 l 2,2 c 0.390382,0.3904998 0.390382,1.0235002 0,1.414 l -2,2 C 28.314621,11.085972 27.690915,11.080552 27.305181,10.69482 26.919448,10.309085 26.914028,9.6853789 27.293,9.293 L 27.586,9 H 24 C 23.447715,9 23,8.5522848 23,8 23,7.4477152 23.447715,7 24,7 Z m -11.948,5.684 3,-9 c 0.134884,-0.4103745 0.518027,-0.6877501 0.95,-0.6877501 0.431973,0 0.815116,0.2773756 0.95,0.6877501 l 3,9 c 0.112896,0.339402 0.03615,0.713252 -0.201336,0.980724 -0.237483,0.267472 -0.599621,0.387931 -0.95,0.316 C 18.450285,13.908794 18.164896,13.655402 18.052,13.316 L 17.28,11 h -2.56 l -0.772,2.316 c -0.174522,0.524671 -0.74133,0.808522 -1.266,0.634 -0.524671,-0.174522 -0.808522,-0.741329 -0.634,-1.266 z M 29,23 H 13 c -0.552285,0 -1,-0.447715 -1,-1 0,-0.552285 0.447715,-1 1,-1 h 16 c 0.552285,0 1,0.447715 1,1 0,0.552285 -0.447715,1 -1,1 z M 43,19 H 13 c -0.552285,0 -1,-0.447715 -1,-1 0,-0.552285 0.447715,-1 1,-1 h 30 c 0.552285,0 1,0.447715 1,1 0,0.552285 -0.447715,1 -1,1 z M 43,6 h -0.108 c -0.349823,1.8140583 -1.188701,3.4980395 -2.426,4.87 0.619381,0.473981 1.282744,0.887537 1.981,1.235 0.494295,0.246871 0.694871,0.847705 0.448,1.342 -0.246871,0.494295 -0.847705,0.694871 -1.342,0.448 C 40.645712,13.443338 39.789766,12.89517 39,12.26 c -0.789529,0.636911 -1.645484,1.186761 -2.553,1.64 -0.494295,0.246871 -1.095129,0.04629 -1.342,-0.448 -0.246871,-0.494295 -0.04629,-1.095129 0.448,-1.342 0.698256,-0.347463 1.361619,-0.761019 1.981,-1.235 C 36.296274,9.5013849 35.457399,7.815683 35.108,6 H 35 C 34.447715,6 34,5.5522848 34,5 34,4.4477153 34.447715,4 35,4 h 3 c 0,-0.5522847 0.447715,-1 1,-1 0.552285,0 1,0.4477153 1,1 h 3 c 0.552285,0 1,0.4477153 1,1 0,0.5522848 -0.447715,1 -1,1 z"
         id="path5" />
      <path
         style="fill:#ff2a2a;fill-opacity:1"
         inkscape:connector-curvature="0"
         d="M 2.591,46.758 C 2.702161,46.31231 3.1026567,45.999668 3.562,46 h 2.549 c 3.4086118,0.04742 6.786733,-0.647313 9.9,-2.036 C 17.584864,43.286132 19.286896,42.957256 21,43 c 5.091,0 6.021,2.243 6.052,2.316 0.135593,0.397504 0.507031,0.666366 0.927,0.671 0.428354,0.02017 0.819121,-0.243321 0.961,-0.648 C 28.979,45.239 29.909,43 35,43 c 1.712769,-0.0426 3.414444,0.286274 4.988,0.964 3.113574,1.388829 6.492052,2.083565 9.901,2.036 h 2.549 c 0.459052,-4.47e-4 0.85945,0.311707 0.971,0.757 L 53.72,48 H 2.28 Z M 56,52 H 36.158 c -1.428316,0.03113 -2.740254,0.794566 -3.473,2.021 C 31.934,55.2 30.051,56 28,56 25.949,56 24.066,55.2 23.315,54.021 22.582254,52.794566 21.270316,52.031126 19.842,52 H 0 v -2 h 56 z"
         id="path7" />
    </g>
  </g>
</svg>
